<?xml version="1.0" encoding="utf-8"?>
<!-- Generator: Adobe Illustrator 23.0.2, SVG Export Plug-In . SVG Version: 6.00 Build 0)  -->
<svg version="1.1" id="Layer_1" xmlns="http://www.w3.org/2000/svg" xmlns:xlink="http://www.w3.org/1999/xlink" x="0px" y="0px"
	 viewBox="0 0 1280 1024" style="enable-background:new 0 0 1280 1024;" xml:space="preserve">
<style type="text/css">
	.st0{fill:#4D4D4D;}
	.st1{opacity:0.29;}
	.st2{clip-path:url(#SVGID_2_);}
	.st3{fill:#868686;stroke:#868686;stroke-width:3;stroke-miterlimit:10;}
	.st4{clip-path:url(#SVGID_2_);fill:#868686;stroke:#868686;stroke-width:3;stroke-miterlimit:10;}
</style>
<rect id="background_1_" class="st0" width="1280" height="1024"/>
<g id="graph_1_" class="st1">
	<defs>
		<polygon id="SVGID_1_" class="st1" points="1280,1016 0,1024 0,0 1280,-8 		"/>
	</defs>
	<clipPath id="SVGID_2_">
		<use xlink:href="#SVGID_1_"  style="overflow:visible;"/>
	</clipPath>
	<g class="st2">
		
			<ellipse transform="matrix(0.0131 -0.9999 0.9999 0.0131 570.4474 1030.9655)" class="st3" cx="807.5" cy="226.5" rx="11" ry="10"/>
		
			<ellipse transform="matrix(0.0131 -0.9999 0.9999 0.0131 936.9561 1194.3042)" class="st3" cx="1073.5" cy="122.5" rx="11" ry="10"/>
		
			<ellipse transform="matrix(0.0131 -0.9999 0.9999 0.0131 707.0668 1407.3853)" class="st3" cx="1066.5" cy="345.5" rx="11" ry="10"/>
		
			<ellipse transform="matrix(0.0131 -0.9999 0.9999 0.0131 196.1039 1305.6884)" class="st3" cx="759.5" cy="553.5" rx="11" ry="10"/>
		
			<ellipse transform="matrix(0.0131 -0.9999 0.9999 0.0131 216.4581 776.3109)" class="st3" cx="501.5" cy="278.5" rx="11" ry="10"/>
		<ellipse transform="matrix(0.0131 -0.9999 0.9999 0.0131 491.5891 633.0677)" class="st3" cx="566.5" cy="67.5" rx="11" ry="10"/>
		
			<ellipse transform="matrix(0.0131 -0.9999 0.9999 0.0131 -263.6454 1423.88)" class="st3" cx="589.5" cy="845.5" rx="11" ry="10"/>
		
			<ellipse transform="matrix(0.0131 -0.9999 0.9999 0.0131 -95.4761 1078.2656)" class="st3" cx="498.5" cy="587.5" rx="11" ry="10"/>
		<ellipse transform="matrix(0.0131 -0.9999 0.9999 0.0131 -86.6688 795.189)" class="st3" cx="359.5" cy="441.5" rx="11" ry="10"/>
		
			<ellipse transform="matrix(0.0131 -0.9999 0.9999 0.0131 116.5498 1621.0858)" class="st3" cx="879.5" cy="751.5" rx="11" ry="10"/>
		
			<ellipse transform="matrix(0.0131 -0.9999 0.9999 0.0131 419.9889 1554.5239)" class="st3" cx="997.5" cy="564.5" rx="11" ry="10"/>
		
			<ellipse transform="matrix(0.0131 -0.9999 0.9999 0.0131 573.1027 1687.6556)" class="st3" cx="1141.5" cy="553.5" rx="11" ry="10"/>
		
			<ellipse transform="matrix(0.0131 -0.9999 0.9999 0.0131 206.965 2074.6926)" class="st3" cx="1154.5" cy="932.5" rx="11" ry="10"/>
		
			<ellipse transform="matrix(0.0131 -0.9999 0.9999 0.0131 -185.6828 1806.87)" class="st3" cx="822.5" cy="997.5" rx="11" ry="10"/>
		
			<ellipse transform="matrix(0.0131 -0.9999 0.9999 0.0131 -539.9291 1287.9551)" class="st3" cx="382.5" cy="917.5" rx="11" ry="10"/>
		
			<ellipse transform="matrix(0.0131 -0.9999 0.9999 0.0131 -384.7181 797.2117)" class="st3" cx="211.5" cy="593.5" rx="11" ry="10"/>
		<ellipse transform="matrix(0.0131 -0.9999 0.9999 0.0131 40.8682 434.4068)" class="st3" cx="240.5" cy="196.5" rx="11" ry="10"/>
		<ellipse transform="matrix(0.0131 -0.9999 0.9999 0.0131 30.3535 67.7536)" class="st3" cx="49.5" cy="18.5" rx="11" ry="10"/>
		
			<ellipse transform="matrix(0.0131 -0.9999 0.9999 0.0131 -726.7653 994.6567)" class="st3" cx="140.5" cy="865.5" rx="11" ry="10"/>
		
			<ellipse transform="matrix(0.0131 -0.9999 0.9999 0.0131 -221.4704 444.6108)" class="st3" cx="114.5" cy="334.5" rx="11" ry="10"/>
		<line class="st3" x1="1073.01" y1="122.86" x2="807.26" y2="226.25"/>
		<line class="st3" x1="1073.01" y1="122.86" x2="1066.56" y2="345.28"/>
		<line class="st3" x1="997.89" y1="564.76" x2="1066.56" y2="345.28"/>
		<line class="st3" x1="759.73" y1="553.31" x2="997.89" y2="564.76"/>
		<line class="st3" x1="807.26" y1="226.25" x2="759.73" y2="553.31"/>
		<line class="st3" x1="1066.56" y1="345.28" x2="810.84" y2="226.24"/>
		<line class="st3" x1="997.89" y1="564.76" x2="807.26" y2="226.25"/>
		<line class="st3" x1="1141.02" y1="553.35" x2="997.89" y2="564.76"/>
		<line class="st3" x1="1066.56" y1="345.28" x2="1141.02" y2="553.35"/>
		<line class="st3" x1="1073.01" y1="122.86" x2="1282.61" y2="243.52"/>
		<line class="st3" x1="1066.56" y1="345.28" x2="1278.5" y2="337.5"/>
		<line class="st3" x1="1073.01" y1="122.86" x2="1278.5" y2="38.5"/>
		<line class="st3" x1="1114.51" y1="-17.49" x2="1073.01" y2="122.86"/>
		<line class="st3" x1="1073.01" y1="122.86" x2="866.56" y2="-12.17"/>
		<line class="st3" x1="807.26" y1="226.25" x2="827.29" y2="-16.66"/>
		<line class="st3" x1="566.73" y1="67.04" x2="807.26" y2="226.25"/>
		<line class="st3" x1="501.93" y1="278.49" x2="807.26" y2="226.25"/>
		<line class="st3" x1="498.83" y1="587.29" x2="759.73" y2="553.31"/>
		<line class="st3" x1="501.93" y1="278.49" x2="763" y2="553.3"/>
		<line class="st3" x1="359.34" y1="441.66" x2="501.93" y2="278.49"/>
		<line class="st3" x1="240.52" y1="196.53" x2="501.93" y2="278.49"/>
		<line class="st3" x1="566.73" y1="67.04" x2="240.52" y2="196.53"/>
		<line class="st3" x1="501.93" y1="278.49" x2="566.73" y2="67.04"/>
		<line class="st3" x1="776.56" y1="-16.51" x2="566.73" y2="67.04"/>
		<line class="st3" x1="596.56" y1="-15.98" x2="566.73" y2="67.04"/>
		<line class="st3" x1="492.09" y1="-15.68" x2="566.73" y2="67.04"/>
		<line class="st3" x1="330.65" y1="-15.21" x2="240.52" y2="196.53"/>
		<line class="st3" x1="182.56" y1="-14.78" x2="240.52" y2="196.53"/>
		<line class="st3" x1="72.5" y1="-9.5" x2="46.75" y2="22.06"/>
		<line class="st3" x1="-0.5" y1="-8.5" x2="49.15" y2="18.36"/>
		<line class="st3" x1="240.52" y1="196.53" x2="49.15" y2="18.36"/>
		<line class="st3" x1="114.58" y1="330.86" x2="49.15" y2="18.35"/>
		<line class="st3" x1="-0.5" y1="38.5" x2="49.23" y2="18.31"/>
		<line class="st3" x1="114.58" y1="334.64" x2="240.52" y2="196.53"/>
		<line class="st3" x1="359.34" y1="441.66" x2="114.58" y2="334.64"/>
		<line class="st3" x1="240.52" y1="196.53" x2="359.34" y2="441.66"/>
		<line class="st3" x1="498.5" y1="587" x2="501.59" y2="278"/>
		<line class="st3" x1="589.47" y1="845" x2="498.83" y2="587.29"/>
		<line class="st3" x1="997.89" y1="564.76" x2="879.48" y2="751.02"/>
		<line class="st3" x1="584.94" y1="845.02" x2="879.48" y2="751.02"/>
		<line class="st3" x1="763" y1="553.3" x2="879.48" y2="751.02"/>
		<line class="st3" x1="589.47" y1="845" x2="759.73" y2="553.31"/>
		<line class="st3" x1="498.83" y1="587.29" x2="359.34" y2="441.66"/>
		<line class="st3" x1="215" y1="591.5" x2="493" y2="587.65"/>
		<line class="st3" x1="359.34" y1="441.66" x2="215.04" y2="591.15"/>
		<line class="st3" x1="382.42" y1="917.31" x2="211.84" y2="586.5"/>
		<line class="st3" x1="498.83" y1="587.29" x2="382.42" y2="917.31"/>
		<line class="st3" x1="589.47" y1="849.07" x2="382.42" y2="917.31"/>
		<line class="st3" x1="215.04" y1="591.15" x2="-0.5" y2="553.5"/>
		<line class="st3" x1="114.58" y1="330.86" x2="215.04" y2="591.15"/>
		<line class="st3" x1="-0.5" y1="434.5" x2="114.58" y2="330.86"/>
		<line class="st3" x1="-1.5" y1="338.5" x2="116.73" y2="332.99"/>
		<line class="st3" x1="140.01" y1="873.03" x2="-1.5" y2="692.5"/>
		<line class="st3" x1="211.84" y1="593.08" x2="140.01" y2="865.57"/>
		<line class="st3" x1="382.42" y1="917.31" x2="140.01" y2="865.57"/>
		<line class="st3" x1="-1.5" y1="893.5" x2="140.01" y2="865.57"/>
		<line class="st3" x1="179.33" y1="1025.47" x2="140.01" y2="865.57"/>
		<line class="st3" x1="68.7" y1="1022.13" x2="140.01" y2="865.57"/>
		<line class="st3" x1="39.38" y1="1020.34" x2="0.5" y2="978.5"/>
		<line class="st3" x1="328.24" y1="1025.04" x2="382.42" y2="917.31"/>
		<line class="st3" x1="484.51" y1="1024.58" x2="382.42" y2="917.31"/>
		<line class="st3" x1="595.78" y1="1024.26" x2="589.55" y2="844.57"/>
		<line class="st3" x1="858.11" y1="1017.96" x2="822.51" y2="997.5"/>
		<line class="st3" x1="822.5" y1="1024" x2="822.5" y2="993"/>
		<line class="st3" x1="776.21" y1="1023.73" x2="822.51" y2="997.5"/>
		<line class="st3" x1="589.47" y1="845" x2="822.51" y2="992.78"/>
		<line class="st3" x1="879.48" y1="751.02" x2="822.51" y2="992.78"/>
		<line class="st3" x1="1154.09" y1="932.77" x2="883.54" y2="751.01"/>
		<line class="st3" x1="822.51" y1="1002.14" x2="1154.09" y2="932.77"/>
		<line class="st3" x1="1115.59" y1="1022.74" x2="1154.09" y2="932.77"/>
		<line class="st3" x1="997.89" y1="564.76" x2="1154.09" y2="932.77"/>
		<line class="st3" x1="1141.02" y1="553.35" x2="1154.09" y2="932.77"/>
		<line class="st3" x1="1280.5" y1="433.5" x2="1141.02" y2="553.35"/>
		<line class="st3" x1="1278.5" y1="691.5" x2="1141.02" y2="553.35"/>
		<line class="st3" x1="1283" y1="553.5" x2="1141" y2="553.68"/>
		<line class="st3" x1="1280.5" y1="891.5" x2="1154.09" y2="932.77"/>
		<line class="st3" x1="1282.64" y1="978.32" x2="1154.09" y2="932.77"/>
	</g>
	<line class="st4" x1="-1.5" y1="242.5" x2="114.5" y2="333.5"/>
</g>
</svg>
