<?xml version="1.0" encoding="utf-8"?>
<!-- Generator: Adobe Illustrator 23.0.2, SVG Export Plug-In . SVG Version: 6.00 Build 0)  -->
<svg version="1.1" id="Layer_1" xmlns="http://www.w3.org/2000/svg" xmlns:xlink="http://www.w3.org/1999/xlink" x="0px" y="0px"
	 viewBox="0 0 1280 1024" style="enable-background:new 0 0 1280 1024;" xml:space="preserve">
<style type="text/css">
	.st0{fill:#4D4D4D;}
	.st1{opacity:0.29;}
	.st2{clip-path:url(#SVGID_2_);}
	.st3{fill:#868686;stroke:#868686;stroke-width:3;stroke-miterlimit:10;}
</style>
<rect id="background" class="st0" width="1280" height="1024"/>
<g id="graph" class="st1">
	<defs>
		<rect id="SVGID_1_" y="1" class="st1" width="1280" height="1024"/>
	</defs>
	<clipPath id="SVGID_2_">
		<use xlink:href="#SVGID_1_"  style="overflow:visible;"/>
	</clipPath>
	<g class="st2">
		
			<ellipse transform="matrix(0.0131 -0.9999 0.9999 0.0131 561.4482 1039.8475)" class="st3" cx="807.5" cy="235.5" rx="11" ry="10"/>
		
			<ellipse transform="matrix(0.0131 -0.9999 0.9999 0.0131 927.9568 1203.1864)" class="st3" cx="1073.5" cy="131.5" rx="11" ry="10"/>
		
			<ellipse transform="matrix(0.0131 -0.9999 0.9999 0.0131 698.0676 1416.2675)" class="st3" cx="1066.5" cy="354.5" rx="11" ry="10"/>
		
			<ellipse transform="matrix(0.0131 -0.9999 0.9999 0.0131 187.1047 1314.5706)" class="st3" cx="759.5" cy="562.5" rx="11" ry="10"/>
		<ellipse transform="matrix(0.0131 -0.9999 0.9999 0.0131 207.4589 785.193)" class="st3" cx="501.5" cy="287.5" rx="11" ry="10"/>
		<ellipse transform="matrix(0.0131 -0.9999 0.9999 0.0131 482.5898 641.9499)" class="st3" cx="566.5" cy="76.5" rx="11" ry="10"/>
		
			<ellipse transform="matrix(0.0131 -0.9999 0.9999 0.0131 -272.6446 1432.7622)" class="st3" cx="589.5" cy="854.5" rx="11" ry="10"/>
		
			<ellipse transform="matrix(0.0131 -0.9999 0.9999 0.0131 -104.4753 1087.1478)" class="st3" cx="498.5" cy="596.5" rx="11" ry="10"/>
		<ellipse transform="matrix(0.0131 -0.9999 0.9999 0.0131 -95.668 804.0712)" class="st3" cx="359.5" cy="450.5" rx="11" ry="10"/>
		
			<ellipse transform="matrix(0.0131 -0.9999 0.9999 0.0131 107.5506 1629.968)" class="st3" cx="879.5" cy="760.5" rx="11" ry="10"/>
		
			<ellipse transform="matrix(0.0131 -0.9999 0.9999 0.0131 410.9897 1563.4061)" class="st3" cx="997.5" cy="573.5" rx="11" ry="10"/>
		
			<ellipse transform="matrix(0.0131 -0.9999 0.9999 0.0131 564.1035 1696.5378)" class="st3" cx="1141.5" cy="562.5" rx="11" ry="10"/>
		
			<ellipse transform="matrix(0.0131 -0.9999 0.9999 0.0131 197.9658 2083.5747)" class="st3" cx="1154.5" cy="941.5" rx="11" ry="10"/>
		
			<ellipse transform="matrix(0.0131 -0.9999 0.9999 0.0131 -194.6821 1815.7522)" class="st3" cx="822.5" cy="1006.5" rx="11" ry="10"/>
		
			<ellipse transform="matrix(0.0131 -0.9999 0.9999 0.0131 -548.9283 1296.8373)" class="st3" cx="382.5" cy="926.5" rx="11" ry="10"/>
		
			<ellipse transform="matrix(0.0131 -0.9999 0.9999 0.0131 -393.7173 806.0938)" class="st3" cx="211.5" cy="602.5" rx="11" ry="10"/>
		<ellipse transform="matrix(0.0131 -0.9999 0.9999 0.0131 31.8689 443.2889)" class="st3" cx="240.5" cy="205.5" rx="11" ry="10"/>
		<ellipse transform="matrix(0.0131 -0.9999 0.9999 0.0131 21.3543 76.6357)" class="st3" cx="49.5" cy="27.5" rx="11" ry="10"/>
		
			<ellipse transform="matrix(0.0131 -0.9999 0.9999 0.0131 -735.7645 1003.5388)" class="st3" cx="140.5" cy="874.5" rx="11" ry="10"/>
		
			<ellipse transform="matrix(0.0131 -0.9999 0.9999 0.0131 -230.4696 453.493)" class="st3" cx="114.5" cy="343.5" rx="11" ry="10"/>
		<line class="st3" x1="1073.01" y1="131.86" x2="807.26" y2="235.25"/>
		<line class="st3" x1="1073.01" y1="131.86" x2="1066.56" y2="354.28"/>
		<line class="st3" x1="997.89" y1="573.76" x2="1066.56" y2="354.28"/>
		<line class="st3" x1="759.73" y1="562.31" x2="997.89" y2="573.76"/>
		<line class="st3" x1="807.26" y1="235.25" x2="759.73" y2="562.31"/>
		<line class="st3" x1="1066.56" y1="354.28" x2="810.84" y2="235.24"/>
		<line class="st3" x1="997.89" y1="573.76" x2="807.26" y2="235.25"/>
		<line class="st3" x1="1141.02" y1="562.35" x2="997.89" y2="573.76"/>
		<line class="st3" x1="1066.56" y1="354.28" x2="1141.02" y2="562.35"/>
		<line class="st3" x1="1073.01" y1="131.86" x2="1282.61" y2="252.52"/>
		<line class="st3" x1="1066.56" y1="354.28" x2="1282.62" y2="311.21"/>
		<line class="st3" x1="1073.01" y1="131.86" x2="1282.61" y2="59.3"/>
		<line class="st3" x1="1114.51" y1="-8.49" x2="1073.01" y2="131.86"/>
		<line class="st3" x1="1073.01" y1="131.86" x2="866.56" y2="-3.17"/>
		<line class="st3" x1="807.26" y1="235.25" x2="827.29" y2="-7.66"/>
		<line class="st3" x1="566.73" y1="76.04" x2="807.26" y2="235.25"/>
		<line class="st3" x1="501.93" y1="287.49" x2="807.26" y2="235.25"/>
		<line class="st3" x1="498.83" y1="596.29" x2="759.73" y2="562.31"/>
		<line class="st3" x1="501.93" y1="287.49" x2="763" y2="562.3"/>
		<line class="st3" x1="359.34" y1="450.66" x2="501.93" y2="287.49"/>
		<line class="st3" x1="240.52" y1="205.53" x2="501.93" y2="287.49"/>
		<line class="st3" x1="566.73" y1="76.04" x2="240.52" y2="205.53"/>
		<line class="st3" x1="501.93" y1="287.49" x2="566.73" y2="76.04"/>
		<line class="st3" x1="776.56" y1="-7.51" x2="566.73" y2="76.04"/>
		<line class="st3" x1="596.56" y1="-6.98" x2="566.73" y2="76.04"/>
		<line class="st3" x1="492.09" y1="-6.68" x2="566.73" y2="76.04"/>
		<line class="st3" x1="330.65" y1="-6.21" x2="240.52" y2="205.53"/>
		<line class="st3" x1="182.56" y1="-5.78" x2="240.52" y2="205.53"/>
		<line class="st3" x1="72.5" y1="-0.5" x2="46.75" y2="31.06"/>
		<line class="st3" x1="-0.5" y1="0.5" x2="49.15" y2="27.36"/>
		<line class="st3" x1="240.52" y1="205.53" x2="49.15" y2="27.36"/>
		<line class="st3" x1="114.58" y1="339.86" x2="49.15" y2="27.35"/>
		<line class="st3" x1="-0.5" y1="55.5" x2="49.15" y2="27.37"/>
		<line class="st3" x1="114.58" y1="343.64" x2="240.52" y2="205.53"/>
		<line class="st3" x1="359.34" y1="450.66" x2="114.58" y2="343.64"/>
		<line class="st3" x1="240.52" y1="205.53" x2="359.34" y2="450.66"/>
		<line class="st3" x1="498.5" y1="596" x2="501.59" y2="287"/>
		<line class="st3" x1="589.47" y1="854" x2="498.83" y2="596.29"/>
		<line class="st3" x1="997.89" y1="573.76" x2="879.48" y2="760.02"/>
		<line class="st3" x1="584.94" y1="854.02" x2="879.48" y2="760.02"/>
		<line class="st3" x1="763" y1="562.3" x2="879.48" y2="760.02"/>
		<line class="st3" x1="589.47" y1="854" x2="759.73" y2="562.31"/>
		<line class="st3" x1="498.83" y1="596.29" x2="359.34" y2="450.66"/>
		<line class="st3" x1="215" y1="600.5" x2="493" y2="596.65"/>
		<line class="st3" x1="359.34" y1="450.66" x2="215.04" y2="600.15"/>
		<line class="st3" x1="382.42" y1="926.31" x2="211.84" y2="595.5"/>
		<line class="st3" x1="498.83" y1="596.29" x2="382.42" y2="926.31"/>
		<line class="st3" x1="589.47" y1="858.07" x2="382.42" y2="926.31"/>
		<line class="st3" x1="215.04" y1="600.15" x2="-0.5" y2="562.5"/>
		<line class="st3" x1="114.58" y1="339.86" x2="215.04" y2="600.15"/>
		<line class="st3" x1="-0.5" y1="463.5" x2="114.58" y2="339.86"/>
		<line class="st3" x1="-0.5" y1="385.5" x2="116.73" y2="341.99"/>
		<line class="st3" x1="140.01" y1="882.03" x2="-0.5" y2="608.5"/>
		<line class="st3" x1="211.84" y1="602.08" x2="140.01" y2="874.57"/>
		<line class="st3" x1="382.42" y1="926.31" x2="140.01" y2="874.57"/>
		<line class="st3" x1="-2.61" y1="852.48" x2="140.01" y2="874.57"/>
		<line class="st3" x1="179.33" y1="1034.47" x2="140.01" y2="874.57"/>
		<line class="st3" x1="68.7" y1="1031.13" x2="140.01" y2="874.57"/>
		<line class="st3" x1="39.38" y1="1029.34" x2="-2.61" y2="976.09"/>
		<line class="st3" x1="328.24" y1="1034.04" x2="382.42" y2="926.31"/>
		<line class="st3" x1="484.51" y1="1033.58" x2="382.42" y2="926.31"/>
		<line class="st3" x1="595.78" y1="1033.26" x2="589.55" y2="853.57"/>
		<line class="st3" x1="858.11" y1="1026.96" x2="822.51" y2="1006.5"/>
		<line class="st3" x1="822.5" y1="1033" x2="822.5" y2="1002"/>
		<line class="st3" x1="776.21" y1="1032.73" x2="822.51" y2="1006.5"/>
		<line class="st3" x1="589.47" y1="854" x2="822.51" y2="1001.78"/>
		<line class="st3" x1="879.48" y1="760.02" x2="822.51" y2="1001.78"/>
		<line class="st3" x1="1154.09" y1="941.77" x2="883.54" y2="760.01"/>
		<line class="st3" x1="822.51" y1="1011.14" x2="1154.09" y2="941.77"/>
		<line class="st3" x1="1115.59" y1="1031.74" x2="1154.09" y2="941.77"/>
		<line class="st3" x1="997.89" y1="573.76" x2="1154.09" y2="941.77"/>
		<line class="st3" x1="1141.02" y1="562.35" x2="1154.09" y2="941.77"/>
		<line class="st3" x1="1282.62" y1="453.55" x2="1141.02" y2="562.35"/>
		<line class="st3" x1="1282.63" y1="641.77" x2="1141.02" y2="562.35"/>
		<line class="st3" x1="1283" y1="562.5" x2="1141" y2="562.68"/>
		<line class="st3" x1="1282.64" y1="805.65" x2="1154.09" y2="941.77"/>
		<line class="st3" x1="1282.64" y1="987.32" x2="1154.09" y2="941.77"/>
	</g>
</g>
</svg>
